<?xml version="1.0" encoding="UTF-8"?><svg xmlns="http://www.w3.org/2000/svg" viewBox="0 0 586.53 630"><g id="uuid-0ba5cca5-25b6-40db-9cbf-c10d7f241111"><g><polygon points="293.265 0 293.265 0 293.265 0 0 104.58 44.73 492.345 293.265 630 293.265 630 293.265 630 541.8 492.345 586.53 104.58 293.265 0" fill="#dd0031"/><polygon points="293.265 0 293.265 69.93 293.265 69.615 293.265 388.71 293.265 388.71 293.265 630 293.265 630 541.8 492.345 586.53 104.58 293.265 0" fill="#c3002f"/></g></g><g id="uuid-eb6fd2d1-72cd-4e76-8686-ce19aa0f39cf"><g><path d="M97.4686,455.8005V168.9202h180.8403v54.5601h-116.1602v66.4404h99.4404v54.5596h-99.4404v111.3203H97.4686Z" fill="#fff"/><path d="M293.265,461.0798c-11.1514,0-20.46-3.8906-27.9395-11.6592-7.4805-7.7695-11.2207-17.3799-11.2207-28.8203,0-11.7285,3.7402-21.4844,11.2207-29.2598,7.4795-7.7686,16.7881-11.6602,27.9395-11.6602,11.1445,0,20.46,3.8916,27.9404,11.6602,7.4795,7.7754,11.2197,17.5312,11.2197,29.2598,0,11.4404-3.7402,21.0508-11.2197,28.8203-7.4805,7.7686-16.7959,11.6592-27.9404,11.6592Z" fill="#fff"/><path d="M378.6234,455.8005V223.4802h-78.7598v-54.5601h222.6406v54.5601h-78.7607v232.3203h-65.1201Z" fill="#fff"/></g></g></svg>